<svg id="Layer_1" data-name="Layer 1" xmlns="http://www.w3.org/2000/svg" viewBox="0 0 1280 474.53"><path d="M861.86,128.35c0-69-57.62-127.29-124.68-128.33-.61,0-1.23,0-1.84,0H524.48V3.67h22l77,137.51L557.48,253h-77V3.67h22V0H418.14V3.67h22V253h-22v3.67H559.07l2.08-3.67,64.19-108.18,23.82,42.6L685.85,253h-22v3.67h71.5A117.55,117.55,0,0,0,755.52,255C814.41,244.76,861.86,191,861.86,128.35ZM647.34,99,594.15,3.67h110L689.5,28.3,649.16,96Zm86.18,154-44-78.46-40.33-71.89L689.5,34.63l18.35-31h27.49c49.51,0,78.84,31.17,78.84,31.17v187S784.85,253,735.34,253Z"/><polygon points="696.65 357.17 659.14 357.17 641.25 387.52 623.35 357.17 585.84 357.17 623.35 411.8 577.43 474.53 614.32 474.53 641.25 436.24 665.84 474.53 702.57 474.53 659.14 411.8 696.65 357.17"/><rect y="365.68" width="12.59" height="101"/><polygon points="78.9 440.96 44.2 361.4 23.57 466.68 36.57 466.68 48.36 399.98 48.62 399.98 78.9 468.83 109.17 399.98 109.44 399.98 121.23 466.68 134.22 466.68 113.59 361.4 78.9 440.96"/><path d="M134.76,466.68h13.52l11.52-25.31h46.35l11.52,25.31H231.2L183,361.4ZM165,429.85,183,389l18,40.86Z"/><path d="M291.61,415.78V427.3h26.12c-.53,16.48-17.41,30-33.08,30-21.84,0-39.25-20.1-39.25-41.26,0-39,48.59-56,72.07-24.51l8.84-8.44a53,53,0,0,0-41.13-19.56c-29.07,0-52.37,23.84-52.37,52.91,0,28,22.77,52.38,51,52.38,29.92.2,49.58-24.13,47.82-53.05Z"/><rect x="343.72" y="365.68" width="12.59" height="101"/><polygon points="449.81 440.3 373.99 360.86 373.99 466.68 386.58 466.68 386.58 391.4 462.4 470.84 462.4 365.68 449.81 365.68 449.81 440.3"/><polygon points="480.35 466.68 534.6 466.68 534.6 455.16 492.94 455.16 492.94 416.99 533.39 416.99 533.39 405.47 492.94 405.47 492.94 377.2 534.6 377.2 534.6 365.68 480.35 365.68 480.35 466.68"/><path d="M770.18,365.68h-20.9v101h20.5c31.88,0,57.06-16.61,57.06-51C826.84,382,801.12,365.68,770.18,365.68Zm-8.3,89.48v-78c26.61-1,52.6,7.57,52.37,39C814.48,447.46,788.49,456.14,761.88,455.16Z"/><polygon points="839.43 466.68 893.68 466.68 893.68 455.16 852.02 455.16 852.02 416.99 892.48 416.99 892.48 405.47 852.02 405.47 852.02 377.2 893.68 377.2 893.68 365.68 839.43 365.68 839.43 466.68"/><path d="M942.31,406.94c-8.14-3.41-21-6.31-21.3-17.28,0-8.84,8.84-14.33,16.88-14.33,7.63,0,12.46,3.21,16.21,9.51l10-6c-12.37-24.61-55.4-18.15-55.72,10.85.43,31,46.38,22.65,46.35,47.69-.45,26.12-37.4,26.08-38.18.53l-12.73,2.68c2.15,16.21,14.87,28.27,31.22,28.27,18.08,0,32.28-13.13,32.28-31.48C967.36,420.47,956.64,412.57,942.31,406.94Z"/><rect x="980.75" y="365.68" width="12.59" height="101"/><path d="M1064.2,415.78V427.3h26.12c-.53,16.48-17.41,30-33.08,30-21.84,0-39.25-20.1-39.25-41.26,0-39,48.59-56,72.07-24.51l8.84-8.44a52.93,52.93,0,0,0-41.13-19.56c-29.06,0-52.37,23.84-52.37,52.91,0,28,22.77,52.38,51,52.38,29.92.2,49.58-24.13,47.83-53.05Z"/><polygon points="1191.33 440.3 1115.51 360.86 1115.51 466.68 1128.1 466.68 1128.1 391.4 1203.92 470.84 1203.92 365.68 1191.33 365.68 1191.33 440.3"/><path d="M1255,406.94c-8.14-3.41-21-6.31-21.3-17.28,0-8.84,8.84-14.33,16.88-14.33,7.64,0,12.46,3.21,16.21,9.51l10-6c-12.37-24.61-55.39-18.15-55.72,10.85.43,31,46.38,22.65,46.35,47.69-.45,26.12-37.4,26.08-38.18.53l-12.72,2.68c2.14,16.21,14.87,28.27,31.21,28.27,18.08,0,32.28-13.13,32.28-31.48C1280,420.47,1269.28,412.57,1255,406.94Z"/></svg>